<?xml version="1.0" encoding="UTF-8"?>
<!DOCTYPE svg PUBLIC "-//W3C//DTD SVG 1.1//EN" "http://www.w3.org/Graphics/SVG/1.1/DTD/svg11.dtd">
<!-- Creator: CorelDRAW X8 -->
<svg xmlns="http://www.w3.org/2000/svg" xml:space="preserve" width="2.53702in" height="2.19363in" version="1.1" style="shape-rendering:geometricPrecision; text-rendering:geometricPrecision; image-rendering:optimizeQuality; fill-rule:evenodd; clip-rule:evenodd"
viewBox="0 0 313 271"
 xmlns:xlink="http://www.w3.org/1999/xlink">
 <defs>
  <style type="text/css">
   <![CDATA[
    .fil2 {fill:#E8E8E8}
    .fil3 {fill:#10314D;fill-rule:nonzero}
    .fil1 {fill:white;fill-rule:nonzero}
    .fil0 {fill:url(#id0);fill-rule:nonzero}
   ]]>
  </style>
  <linearGradient id="id0" gradientUnits="userSpaceOnUse" x1="-0" y1="135.361" x2="313.1" y2="135.361">
   <stop offset="0" style="stop-opacity:1; stop-color:#00AADA"/>
   <stop offset="0.207843" style="stop-opacity:1; stop-color:#5A68A0"/>
   <stop offset="0.360784" style="stop-opacity:1; stop-color:#33B963"/>
   <stop offset="0.678431" style="stop-opacity:1; stop-color:#F38D21"/>
   <stop offset="1" style="stop-opacity:1; stop-color:#B52566"/>
  </linearGradient>
 </defs>
 <g id="Layer_x0020_1">
  <metadata id="CorelCorpID_0Corel-Layer"/>
  <g id="_2263943645680">
   <path class="fil0" d="M43 0l227 0c12,0 23,5 30,13 8,7 13,18 13,30l0 185c0,12 -5,22 -13,30 -7,8 -18,13 -30,13l-227 0c-12,0 -23,-5 -30,-13 -8,-8 -13,-18 -13,-30l0 -185c0,-12 5,-23 13,-30 7,-8 18,-13 30,-13zm227 8l-227 0c-10,0 -18,4 -24,11 -7,6 -11,14 -11,24l0 185c0,9 4,18 11,24 6,6 14,10 24,10l227 0c10,0 18,-4 25,-10 6,-6 10,-15 10,-24l0 -185c0,-10 -4,-18 -10,-24 -7,-7 -15,-11 -25,-11z"/>
   <path class="fil1" d="M270 8l-227 0c-10,0 -18,4 -24,11 -7,6 -11,14 -11,24l0 185c0,9 4,18 11,24 6,6 14,10 24,10l227 0c10,0 18,-4 25,-10 6,-6 10,-15 10,-24l0 -185c0,-10 -4,-18 -10,-24 -7,-7 -15,-11 -25,-11z"/>
  </g>
  <g id="_2263943648656">
   <g>
    <path class="fil2" d="M188 52c0,0 -31,-13 -55,7 0,0 -18,15 -7,31 0,0 11,18 32,3 0,0 10,-6 13,-18 0,0 1,-14 17,-23z"/>
    <path class="fil2" d="M122 116c0,0 -32,-13 -55,7 0,0 -19,15 -7,30 0,0 11,19 32,4 0,0 10,-6 13,-18 0,0 0,-14 17,-23z"/>
    <path class="fil2" d="M179 115c0,0 -31,-14 -55,6 0,0 -19,15 -7,31 0,0 11,18 32,4 0,0 10,-7 13,-19 0,0 1,-13 17,-22z"/>
    <path class="fil2" d="M236 115c0,0 -31,-14 -55,6 0,0 -18,15 -7,31 0,0 11,18 32,4 0,0 11,-7 13,-19 0,0 1,-13 17,-22z"/>
    <path class="fil2" d="M112 176c0,0 -32,-13 -56,7 0,0 -18,15 -7,30 0,0 11,19 32,4 0,0 11,-7 13,-19 0,0 1,-13 18,-22z"/>
    <path class="fil2" d="M169 175c0,0 -32,-14 -55,6 0,0 -19,15 -7,31 0,0 11,18 32,4 0,0 10,-7 13,-19 0,0 0,-13 17,-22z"/>
    <path class="fil2" d="M226 175c0,0 -32,-14 -55,6 0,0 -19,15 -7,31 0,0 11,18 32,4 0,0 10,-7 13,-19 0,0 1,-14 17,-22z"/>
    <path class="fil2" d="M281 175c0,0 -31,-14 -55,6 0,0 -18,15 -7,31 0,0 11,18 32,4 0,0 11,-7 13,-19 0,0 1,-13 17,-22z"/>
   </g>
   <path class="fil3" d="M28 135c0,-5 1,-11 3,-16 1,-5 4,-10 8,-14 3,-4 8,-7 13,-10 5,-2 11,-4 17,-4 8,0 15,2 20,6 6,3 10,8 13,13l-9 6c-1,-3 -3,-5 -5,-7 -2,-2 -4,-3 -6,-5 -2,-1 -4,-2 -6,-2 -3,-1 -5,-1 -7,-1 -5,0 -9,1 -13,3 -4,2 -7,5 -9,8 -3,3 -5,7 -6,11 -1,4 -2,8 -2,12 0,5 1,9 2,13 2,4 4,8 7,11 2,4 5,6 9,8 4,2 8,3 12,3 2,0 5,-1 7,-1 3,-1 5,-2 7,-3 2,-1 4,-3 6,-5 2,-2 4,-4 5,-7l9 5c-1,4 -3,7 -5,9 -3,3 -6,5 -9,6 -3,2 -6,3 -10,4 -4,1 -7,2 -10,2 -6,0 -12,-2 -17,-4 -5,-3 -9,-6 -13,-10 -3,-5 -6,-9 -8,-15 -2,-5 -3,-11 -3,-16z"/>
   <path id="1" class="fil3" d="M117 179l0 -87 38 0c3,0 7,1 10,2 3,2 6,4 9,7 2,2 4,5 5,8 1,4 2,7 2,11 0,3 0,6 -1,8 -1,3 -2,6 -4,8 -2,2 -3,4 -6,6 -2,2 -5,3 -7,4l21 33 -13 0 -20 -31 -23 0 0 31 -11 0zm11 -41l27 0c2,0 4,-1 6,-2 2,-1 3,-2 5,-4 1,-1 2,-3 3,-5 0,-3 1,-5 1,-7 0,-3 -1,-5 -1,-7 -1,-2 -2,-4 -4,-6 -1,-2 -3,-3 -5,-4 -2,-1 -4,-1 -6,-1l-26 0 0 36z"/>
   <polygon id="2" class="fil3" points="274,179 274,112 245,163 239,163 210,112 210,179 199,179 199,92 210,92 242,148 274,92 285,92 285,179 "/>
  </g>
 </g>
</svg>
